<mxfile host="app.diagrams.net" modified="2024-02-20T08:53:32.244Z" agent="Mozilla/5.0 (Macintosh; Intel Mac OS X 10_15_7) AppleWebKit/605.1.15 (KHTML, like Gecko) Version/17.4 Safari/605.1.15" etag="NTxmMrdV92oGPozJjOdh" version="23.1.5" type="github">
  <diagram name="Page-1" id="7cR7FV348O8GOo62HR_c">
    <mxGraphModel dx="2518" dy="1860" grid="0" gridSize="10" guides="1" tooltips="1" connect="1" arrows="1" fold="1" page="0" pageScale="1" pageWidth="827" pageHeight="1169" math="0" shadow="0">
      <root>
        <mxCell id="0" />
        <mxCell id="1" parent="0" />
        <mxCell id="y_yZkoMNqgVAC2f75hLv-2" value="Start" style="ellipse;whiteSpace=wrap;html=1;" parent="1" vertex="1">
          <mxGeometry x="-34" y="-29" width="120" height="79" as="geometry" />
        </mxCell>
        <mxCell id="y_yZkoMNqgVAC2f75hLv-3" value="valid?" style="rhombus;whiteSpace=wrap;html=1;" parent="1" vertex="1">
          <mxGeometry x="-38" y="201" width="124" height="68" as="geometry" />
        </mxCell>
        <mxCell id="y_yZkoMNqgVAC2f75hLv-6" value="" style="endArrow=classic;html=1;rounded=0;fontSize=12;startSize=8;endSize=8;exitX=0.5;exitY=1;exitDx=0;exitDy=0;" parent="1" source="y_yZkoMNqgVAC2f75hLv-2" target="y_yZkoMNqgVAC2f75hLv-8" edge="1">
          <mxGeometry width="50" height="50" relative="1" as="geometry">
            <mxPoint x="180" y="146" as="sourcePoint" />
            <mxPoint x="26" y="86" as="targetPoint" />
          </mxGeometry>
        </mxCell>
        <mxCell id="y_yZkoMNqgVAC2f75hLv-7" value="" style="endArrow=classic;html=1;rounded=0;fontSize=12;startSize=8;endSize=8;exitX=1;exitY=0.5;exitDx=0;exitDy=0;" parent="1" source="y_yZkoMNqgVAC2f75hLv-3" edge="1">
          <mxGeometry width="50" height="50" relative="1" as="geometry">
            <mxPoint x="180" y="146" as="sourcePoint" />
            <mxPoint x="28" y="69" as="targetPoint" />
            <Array as="points">
              <mxPoint x="124" y="236" />
              <mxPoint x="134" y="124" />
              <mxPoint x="137" y="67" />
              <mxPoint x="93" y="67" />
            </Array>
          </mxGeometry>
        </mxCell>
        <mxCell id="y_yZkoMNqgVAC2f75hLv-8" value="input nowant" style="shape=parallelogram;perimeter=parallelogramPerimeter;whiteSpace=wrap;html=1;fixedSize=1;" parent="1" vertex="1">
          <mxGeometry x="-32" y="91" width="120" height="60" as="geometry" />
        </mxCell>
        <mxCell id="y_yZkoMNqgVAC2f75hLv-9" value="" style="endArrow=classic;html=1;rounded=0;fontSize=12;startSize=8;endSize=8;exitX=0.25;exitY=1;exitDx=0;exitDy=0;entryX=0.5;entryY=0;entryDx=0;entryDy=0;" parent="1" source="y_yZkoMNqgVAC2f75hLv-8" target="y_yZkoMNqgVAC2f75hLv-3" edge="1">
          <mxGeometry width="50" height="50" relative="1" as="geometry">
            <mxPoint x="22" y="155" as="sourcePoint" />
            <mxPoint x="72" y="105" as="targetPoint" />
          </mxGeometry>
        </mxCell>
        <mxCell id="y_yZkoMNqgVAC2f75hLv-10" value="no" style="text;html=1;align=center;verticalAlign=middle;whiteSpace=wrap;rounded=0;fontSize=16;" parent="1" vertex="1">
          <mxGeometry x="69" y="196" width="60" height="30" as="geometry" />
        </mxCell>
        <mxCell id="y_yZkoMNqgVAC2f75hLv-11" value="yes" style="text;html=1;align=center;verticalAlign=middle;whiteSpace=wrap;rounded=0;fontSize=16;" parent="1" vertex="1">
          <mxGeometry x="-34" y="265" width="60" height="30" as="geometry" />
        </mxCell>
        <mxCell id="y_yZkoMNqgVAC2f75hLv-12" value="run function according to nowant" style="rounded=1;whiteSpace=wrap;html=1;" parent="1" vertex="1">
          <mxGeometry x="-24" y="323" width="120" height="60" as="geometry" />
        </mxCell>
        <mxCell id="y_yZkoMNqgVAC2f75hLv-13" value="" style="endArrow=classic;html=1;rounded=0;fontSize=12;startSize=8;endSize=8;exitX=0.5;exitY=1;exitDx=0;exitDy=0;entryX=0.5;entryY=0;entryDx=0;entryDy=0;" parent="1" source="y_yZkoMNqgVAC2f75hLv-3" target="y_yZkoMNqgVAC2f75hLv-12" edge="1">
          <mxGeometry width="50" height="50" relative="1" as="geometry">
            <mxPoint x="138" y="361" as="sourcePoint" />
            <mxPoint x="23" y="317" as="targetPoint" />
          </mxGeometry>
        </mxCell>
        <mxCell id="4PdoItPepvkE1q-B6LYC-4" value="" style="edgeStyle=none;curved=1;rounded=0;orthogonalLoop=1;jettySize=auto;html=1;fontSize=12;startSize=8;endSize=8;" edge="1" parent="1" source="y_yZkoMNqgVAC2f75hLv-14" target="4PdoItPepvkE1q-B6LYC-2">
          <mxGeometry relative="1" as="geometry" />
        </mxCell>
        <mxCell id="y_yZkoMNqgVAC2f75hLv-14" value="input want" style="shape=parallelogram;perimeter=parallelogramPerimeter;whiteSpace=wrap;html=1;fixedSize=1;" parent="1" vertex="1">
          <mxGeometry x="-24" y="439" width="120" height="60" as="geometry" />
        </mxCell>
        <mxCell id="4PdoItPepvkE1q-B6LYC-1" value="" style="endArrow=classic;html=1;rounded=0;fontSize=12;startSize=8;endSize=8;exitX=0.5;exitY=1;exitDx=0;exitDy=0;" edge="1" parent="1" source="y_yZkoMNqgVAC2f75hLv-12" target="y_yZkoMNqgVAC2f75hLv-14">
          <mxGeometry width="50" height="50" relative="1" as="geometry">
            <mxPoint x="80" y="488" as="sourcePoint" />
            <mxPoint x="38" y="436" as="targetPoint" />
          </mxGeometry>
        </mxCell>
        <mxCell id="4PdoItPepvkE1q-B6LYC-8" value="" style="edgeStyle=none;curved=1;rounded=0;orthogonalLoop=1;jettySize=auto;html=1;fontSize=12;startSize=8;endSize=8;" edge="1" parent="1" source="4PdoItPepvkE1q-B6LYC-2">
          <mxGeometry relative="1" as="geometry">
            <mxPoint x="122" y="234" as="targetPoint" />
            <Array as="points">
              <mxPoint x="187" y="572" />
            </Array>
          </mxGeometry>
        </mxCell>
        <mxCell id="4PdoItPepvkE1q-B6LYC-11" value="" style="edgeStyle=none;curved=1;rounded=0;orthogonalLoop=1;jettySize=auto;html=1;fontSize=12;startSize=8;endSize=8;" edge="1" parent="1" source="4PdoItPepvkE1q-B6LYC-2" target="4PdoItPepvkE1q-B6LYC-10">
          <mxGeometry relative="1" as="geometry" />
        </mxCell>
        <mxCell id="4PdoItPepvkE1q-B6LYC-2" value="valid?" style="rhombus;whiteSpace=wrap;html=1;" vertex="1" parent="1">
          <mxGeometry x="-32" y="536" width="124" height="68" as="geometry" />
        </mxCell>
        <mxCell id="4PdoItPepvkE1q-B6LYC-9" value="no" style="text;html=1;align=center;verticalAlign=middle;whiteSpace=wrap;rounded=0;fontSize=16;" vertex="1" parent="1">
          <mxGeometry x="69" y="529" width="60" height="30" as="geometry" />
        </mxCell>
        <mxCell id="4PdoItPepvkE1q-B6LYC-13" value="" style="edgeStyle=none;curved=1;rounded=0;orthogonalLoop=1;jettySize=auto;html=1;fontSize=12;startSize=8;endSize=8;" edge="1" parent="1" source="4PdoItPepvkE1q-B6LYC-10" target="4PdoItPepvkE1q-B6LYC-12">
          <mxGeometry relative="1" as="geometry" />
        </mxCell>
        <mxCell id="4PdoItPepvkE1q-B6LYC-10" value="input variables" style="shape=parallelogram;perimeter=parallelogramPerimeter;whiteSpace=wrap;html=1;fixedSize=1;" vertex="1" parent="1">
          <mxGeometry x="-34" y="632" width="120" height="60" as="geometry" />
        </mxCell>
        <mxCell id="4PdoItPepvkE1q-B6LYC-15" value="" style="edgeStyle=none;curved=1;rounded=0;orthogonalLoop=1;jettySize=auto;html=1;fontSize=12;startSize=8;endSize=8;" edge="1" parent="1" source="4PdoItPepvkE1q-B6LYC-12" target="4PdoItPepvkE1q-B6LYC-14">
          <mxGeometry relative="1" as="geometry" />
        </mxCell>
        <mxCell id="4PdoItPepvkE1q-B6LYC-12" value="calculate" style="rounded=1;whiteSpace=wrap;html=1;" vertex="1" parent="1">
          <mxGeometry x="-34" y="735" width="120" height="60" as="geometry" />
        </mxCell>
        <mxCell id="4PdoItPepvkE1q-B6LYC-18" value="" style="edgeStyle=none;curved=1;rounded=0;orthogonalLoop=1;jettySize=auto;html=1;fontSize=12;startSize=8;endSize=8;" edge="1" parent="1" source="4PdoItPepvkE1q-B6LYC-14" target="4PdoItPepvkE1q-B6LYC-16">
          <mxGeometry relative="1" as="geometry" />
        </mxCell>
        <mxCell id="4PdoItPepvkE1q-B6LYC-14" value="print result" style="shape=parallelogram;perimeter=parallelogramPerimeter;whiteSpace=wrap;html=1;fixedSize=1;" vertex="1" parent="1">
          <mxGeometry x="-34" y="843" width="120" height="60" as="geometry" />
        </mxCell>
        <mxCell id="4PdoItPepvkE1q-B6LYC-16" value="end" style="ellipse;whiteSpace=wrap;html=1;" vertex="1" parent="1">
          <mxGeometry x="-34" y="953" width="120" height="80" as="geometry" />
        </mxCell>
      </root>
    </mxGraphModel>
  </diagram>
</mxfile>
